<?xml version="1.0" encoding="utf-8"?>
<!-- Generator: Adobe Illustrator 26.3.1, SVG Export Plug-In . SVG Version: 6.00 Build 0)  -->
<svg version="1.1" id="VARG" xmlns="http://www.w3.org/2000/svg" xmlns:xlink="http://www.w3.org/1999/xlink" x="0px" y="0px"
	 viewBox="0 0 305 313" style="enable-background:new 0 0 305 313;" xml:space="preserve">
<style type="text/css">
	.st0{fill:#F9981E;}
	.st1{fill:#38383A;}
	.st2{fill:#494949;}
	.st3{fill:#FFFFFF;}
	.st4{fill:#00AA91;}
	.st5{fill:#E0E0E0;}
</style>
<g>
	<path class="st0" d="M190.4,140.4l-3.7-37.9c-0.1-0.9-0.6-1.7-1.3-2.1c-0.3-0.2-0.6-0.3-0.9-0.3c-1.2-0.2-2.4,0.4-3.1,1.5l-18.1,30
		c-2.9,4.8-4.5,10.2-4.6,15.6l-0.6,35.2c-0.6,0.8-1.2,1.6-1.8,2.4"/>
	<path class="st1" d="M157.5,185.5l-1.1-0.6l-1-0.7l1.5-2.1l0.6-34.9c0.1-5.7,1.7-11.3,4.8-16.3l18.1-30c0.9-1.5,2.7-2.4,4.3-2.1
		c0.5,0.1,0.9,0.2,1.3,0.5c1.1,0.6,1.7,1.7,1.9,3l3.7,37.9l-2.4,0.2l-3.7-37.9c0-0.5-0.3-0.9-0.7-1.1c-0.1-0.1-0.3-0.1-0.5-0.2
		c-0.7-0.1-1.4,0.3-1.8,1l-18.1,30c-2.8,4.6-4.3,9.8-4.4,15l-0.6,35.6L157.5,185.5z"/>
	<path class="st0" d="M207.3,211.8l31-17.1c4.8-2.6,8.8-6.6,11.7-11.4l18.1-30c0.7-1.1,0.6-2.5-0.1-3.4c-0.2-0.3-0.4-0.5-0.7-0.6
		c-0.7-0.4-1.6-0.5-2.4-0.1l-35.4,14.6l-22.9,49.4C206.8,212.7,207.1,212.3,207.3,211.8z"/>
	<path class="st1" d="M207.7,213.7l-2.2-1.1l23.1-49.9l35.9-14.8c1.2-0.5,2.5-0.4,3.5,0.2c0.4,0.2,0.8,0.6,1.1,0.9
		c1,1.3,1.1,3.3,0.2,4.8l-18.1,30c-3,5-7.2,9.1-12.2,11.8l-30.7,16.9L207.7,213.7z M230.4,164.7l-20.5,44.3l27.8-15.3
		c4.6-2.5,8.5-6.3,11.3-10.9l18.1-30c0.4-0.7,0.4-1.5,0-2.1c-0.1-0.1-0.2-0.2-0.4-0.3c-0.4-0.2-0.9-0.3-1.4-0.1L230.4,164.7z"/>
	<g>
		<path class="st2" d="M196.2,147.7l9.7-19.1c0,0,3.5-5.3,16.8-0.7c0,0,8.6,3.7,4.2,14.1c-4.4,10.4-14.7,33.3-14.7,33.3L196.2,147.7
			z"/>
	</g>
	<g>
		<path class="st3" d="M224.5,150.5c4.4,2.6,6.3,8,5,13.2l0,0l-22.9,49.4c-11.2,23.2-21.2,42.7-26.9,52
			c-5.6,9.3-12.1,16.3-18.6,21.7c-6-1.2-15.7-3.9-25.8-10.5c-11.3-7.3-17.9-14.2-21.4-19.5c1.9-7.3,4.9-17,9.7-25.1
			c5.5-9.1,17.8-26.6,32.7-46.8l34.8-45c4-3.1,9.2-3.8,13.3-1.4l7.6,4.5L224.5,150.5z"/>
		<path class="st1" d="M161.5,288.2l-0.6-0.1c-9.4-1.9-18.2-5.5-26.2-10.7c-12.6-8.2-18.8-15.4-21.8-19.9l-0.3-0.5l0.1-0.5
			c2.7-10.6,6-18.9,9.9-25.4c5.3-8.8,17.3-25.9,32.7-46.9l34.8-45c4.7-3.7,10.5-4.3,14.9-1.7l20,11.9c4.8,2.9,7,8.7,5.5,14.6
			l-23,49.7c-11.6,24.1-21.5,43-26.9,52.1c-5.1,8.4-11.4,15.8-18.8,22L161.5,288.2z M115.3,256.6c2.9,4.4,8.9,11,20.7,18.7
			c7.6,4.9,15.9,8.4,24.8,10.2c7-5.9,13-13,17.8-21c5.4-9,15.2-27.9,26.8-51.9l22.9-49.4c1.1-4.6-0.6-9.4-4.5-11.7l-20-11.9
			c-3.6-2.1-8.2-1.6-12,1.3l-34.5,44.8c-15.4,20.9-27.3,38-32.6,46.7C121.1,238.6,118,246.5,115.3,256.6z"/>
	</g>
	<path class="st0" d="M214.4,144.7c-0.2,0.2-1.1-25.1-1.1-25.1c0-0.6-0.3-0.9-0.8-0.9c-0.2,0-0.4,0.1-0.6,0.2
		c-0.9,0.4-1.8,1.4-2.4,2.5l-15,29.6c-2.4,4.7-3.9,9.3-4.2,13.3l-2.4,25.7L214.4,144.7z"/>
	<path class="st1" d="M186.1,195.3l3-31.2c0.4-4.1,1.9-8.9,4.4-13.7l15-29.6c0.7-1.4,1.8-2.5,3-3c0.4-0.2,0.9-0.2,1.2-0.3
		c1.2,0,2,0.9,2,2.1c0.3,8.5,0.8,20.9,1,24.1l0.8,0.2L186.1,195.3z M212.1,120.2c-0.5,0.4-1.1,1-1.5,1.7l-15,29.6
		c-2.3,4.6-3.7,9-4.1,12.9l-1.9,20.2l23.7-40.2C212.9,142,212.7,136.1,212.1,120.2z"/>
	<g>
		<g>
			<path class="st4" d="M184.4,285c0,0,1.9-4.6,13.7,0c11.8,4.6,12.1,4.8,13.9,5.1c1.9,0.3,2.9,0,2.9,0s-12.1,5.9-20.4,4
				C186.3,292.3,183.3,289.3,184.4,285z"/>
		</g>
	</g>
	<g>
		<g>
			<path class="st4" d="M28.9,288.8c0,0,8-4,12.1-2.7s8,4.3,8,4.3s2.9,1.9,3.8,2.1C53.6,292.8,39.1,292.7,28.9,288.8z"/>
		</g>
	</g>
	<g>
		<g>
			<path class="st4" d="M47.2,281.4c0,0,4-1.1,5.6,0c1.6,1.1,5.6,4.6,5.6,4.6L47.2,281.4z"/>
		</g>
	</g>
	<g>
		<path class="st4" d="M82.8,283c0,0,4.5,0.9,5.3,0c0.8-0.9,1.9-2.8,1.9-2.8l-2.4-2.1h-4.8V283z"/>
	</g>
	<g>
		<path class="st4" d="M157.3,294.5c2.7,1.5,7.2,1.2,8.6,1.5s3.2,0,3.2,0s1.3-2.8,1.3-3.4c0-0.6-4.8-1.2-4.8-1.2l-9.7,2.3
			L157.3,294.5z"/>
	</g>
	<g>
		<g>
			<path class="st4" d="M221.9,293.8c1.6,0.9,2.9,0.8,5.1,0.7c2.1-0.1,6.4,0.6,5.1-0.7c-1.3-1.3-3.5-2.3-3.5-2.3L221.9,293.8z"/>
		</g>
	</g>
	<g>
		<path class="st4" d="M176.9,294.6c2.7,1.2,6.2,1.5,6.2,1.5l1.1-3.5L176.9,294.6z"/>
	</g>
	<path class="st4" d="M114,255.4c0,0,0.4,8.6-1.8,12.4c-2.2,3.8-4.9,3.5-3.8,7.3c1.1,3.8,3.8,4.2,4.2,6.6c0.4,2.4-0.9,8.2,0.4,8.9
		c1.3,0.7,35.5,2.4,35.5,2.4s15.3-3.1,15.3-9.4S144.1,254.6,114,255.4z"/>
	<path class="st1" d="M148.7,294.4l-0.2,0c-12.8-0.7-34.6-1.9-36-2.5c-1.5-0.8-1.4-3.1-1.2-6.1c0.1-1.4,0.2-2.9,0.1-3.7
		c-0.1-0.7-0.6-1.2-1.3-2c-1-1-2.2-2.2-2.8-4.5c-0.9-3.1,0.3-4.3,1.7-5.6c0.7-0.7,1.5-1.4,2.2-2.7c1.7-2.8,1.7-9.4,1.6-11.7
		l-0.1-1.3l1.3,0c22.5-0.7,37.6,11.5,43,16.7c4.9,4.8,8.1,9.8,8.1,12.8c0,7.1-14.6,10.3-16.3,10.6L148.7,294.4z M113.8,289.6
		c2.9,0.5,22.4,1.6,34.7,2.3c3.8-0.8,14.2-3.9,14.2-8.2c0-1.9-2.5-6.3-7.4-11c-5-4.9-18.8-16.1-39.5-16.1c-0.2,0-0.3,0-0.5,0
		c0,2.6-0.1,8.7-2,11.8c-0.9,1.5-1.9,2.4-2.6,3.2c-1.2,1.1-1.5,1.5-1,3.2c0.5,1.7,1.4,2.6,2.2,3.5c0.9,0.9,1.7,1.8,2,3.3
		c0.2,1.1,0.1,2.7,0,4.3C113.8,287.1,113.6,288.9,113.8,289.6z"/>
	<g>
		<path class="st4" d="M101,289.2c2.4,0,3.1,3.8,3.1,3.8l-3.1,0.8C101,293.8,97.3,289.2,101,289.2z"/>
	</g>
	<g>
		<path class="st5" d="M224.6,156.1c-8.7,16-18.4,32.8-29.2,49.9c-13.7,21.8-27.6,41.8-41.2,59.9c4.2,5,8.5,9.9,12.7,14.9
			c10.2-13.8,21.3-30.9,31.5-51.4C212,201.9,219.9,176.5,224.6,156.1z"/>
	</g>
	<g>
		<path class="st5" d="M224.3,115.8c0,0,8.6-16.9,5.2-25.2c-3.4-8.3-7.8-8.7-4.4-12.6c3.3-3.9,7.5-6.8,8.7-10
			c1.2-3.3,2.8-6.2,2.8-7.2c0-1-0.6,2.3,0.2-7.9c0.8-10.2-1.9-7.3,0.3-13.8c2.2-6.5-4-10.9-5.9-11.3c-1.8-0.4-11.7-5.2-14.4-5.2
			c-2.6-0.1-15.2-2.6-17.6-0.4c-2.4,2.3-7.6-0.5-6.4,10.4c1.2,10.9-1.1,11.8,2.9,15.2c4,3.4,11.9-8.3,6.7,5.4
			c-5.3,13.7-6.2,15.3-6,17.7c0.2,2.3-0.7,3.3,2.2,5.6s3.8,1.7,5.2,4.1c1.4,2.3,1.6,5.6,4.5,9c2.9,3.4,5.2,5.4,6.9,8
			c1.7,2.7,7,0.8,6.6,9.7C221.4,116,224.3,115.8,224.3,115.8z"/>
	</g>
	<g>
		<path class="st5" d="M237.6,155.3l5.2-4.6l10.9-9.7c0,0,6.5-3.4,5.6-9.9c-0.8-6.5,4.8-16.3-4.8-10.5c-9.7,5.7-12.2,2.5-11.7,8.9
			c0.5,6.5,11.9,0.6,6.2,7.6C243.3,144,237.6,155.3,237.6,155.3z"/>
	</g>
	<g>
		<path class="st5" d="M141.8,153.6c0,0-8-12.2-10-8.1c-2,4.1-10.3,11.2-2.9,16.5c7.3,5.3,12.9,1.1,12.9,6.4c0,5.3,6.4,6.2,5.2,11.8
			c-1.2,5.6,4.2,6.2,4.2,6.2S156.2,155,141.8,153.6z"/>
	</g>
	<g>
		<path class="st2" d="M158.3,271.9c-0.4,0-0.8-0.2-1-0.5c-0.4-0.6-0.2-1.3,0.3-1.7c4.4-2.9,5.3-2.9,5.6-2.9c0.5,0,2.9-0.6,5-1.2
			c0,0,1-0.5,1.6-0.9c0.4-0.2,1.1-0.9,1.7-1.4c0.6-0.5,1.1-0.9,1.3-1.1c0.6-0.4,1.3-0.2,1.7,0.3c0.4,0.6,0.2,1.3-0.3,1.7
			c-0.2,0.1-0.6,0.5-1.1,0.9c-0.7,0.6-1.5,1.3-2,1.6c-0.8,0.5-2,1.1-2,1.1c-1.6,0.5-5,1.4-5.9,1.4c-0.4,0.1-2.6,1.4-4.2,2.5
			C158.8,271.8,158.5,271.9,158.3,271.9z"/>
	</g>
	<g>
		<path class="st2" d="M132.2,280.7c-0.4,0-0.7-0.2-1-0.5c-0.4-0.5-0.3-1.3,0.2-1.7c0.3-0.2,0.7-0.4,1.1-0.6c0.5-0.2,1-0.5,1.3-0.8
			c0.7-0.7,2-0.8,3.7-0.9c0.4,0,0.7,0,0.9-0.1c0.3-0.2,0.7-0.4,1.5-0.8c0.5-0.2,1.4-0.6,1.6-0.8c0.4-0.4,1.1-1.2,1.7-2.2
			c0.2-0.3,0.2-0.4,0.2-0.5c-0.1-0.3-0.1-0.6,0-0.9c0.2-0.4,0.3-1,0.2-1.2c-0.5-0.3-0.9-0.7-1.4-1.4l-0.6-0.7
			c-0.4-0.4-0.6-1-0.6-1.6c0.1-1.4,1.5-2.7,1.7-3c0.5-0.4,1.3-0.4,1.7,0.1c0.5,0.5,0.4,1.3-0.1,1.7c-0.5,0.4-0.9,1-0.9,1.3l0.6,0.6
			c0.4,0.5,0.7,0.8,1.2,1.2c1.2,0.9,0.8,2.7,0.5,3.5c0.1,0.5,0,1.2-0.5,2.1c-0.7,1.3-1.6,2.3-2.2,2.8c-0.4,0.3-1.1,0.7-2.2,1.2
			c-0.5,0.2-1,0.4-1.2,0.6c-0.3,0.4-0.9,0.4-2.1,0.5c-0.6,0-1.9,0.1-2.2,0.3c-0.6,0.5-1.3,0.9-1.9,1.1c-0.2,0.1-0.5,0.2-0.6,0.3
			C132.7,280.6,132.4,280.7,132.2,280.7z M143.5,272.2C143.5,272.2,143.5,272.2,143.5,272.2C143.5,272.2,143.5,272.2,143.5,272.2z
			 M143.5,272.2C143.5,272.2,143.5,272.2,143.5,272.2C143.5,272.2,143.5,272.2,143.5,272.2z M143.5,272.2L143.5,272.2L143.5,272.2z"
			/>
	</g>
	<g>
		<path class="st2" d="M126,265.3c-0.1,0-0.2,0-0.3,0c-0.5-0.1-0.8-0.5-0.9-1c-0.9-0.4-1.8-1.3-3.2-2.8l-0.5-0.6
			c-0.3-0.4-0.7-0.8-1-1.1c-1.6-1.7-0.8-3.9-0.1-4.8c0.4-0.6,1.1-0.7,1.7-0.3c0.6,0.4,0.7,1.1,0.3,1.7c0,0.1-0.7,1.1-0.1,1.8
			c0.3,0.3,0.6,0.7,1,1.1l0.5,0.6c1.4,1.6,2,2.1,2.2,2.2c1.6,0.5,1.7,1.8,1.6,2.4C127,264.9,126.5,265.3,126,265.3z"/>
	</g>
	<g>
		<path class="st2" d="M120.4,267.1c-0.5,0-0.9-0.2-1.1-0.7c-0.4-0.8-0.7-1.4-0.3-1.9c-0.1-0.6,0-1.1,0.6-1.5
			c0.2-0.1,0.5-0.2,0.8-0.2c0.3-0.4,0.6-1,0.7-1.6c0.2-0.6,0.9-1,1.6-0.8c0.6,0.2,1,0.9,0.8,1.6c-0.1,0.3-0.7,2.1-1.7,2.8
			c-0.1,0.1-0.2,0.2-0.3,0.2c0,0,0,0.1,0,0.1c0,0,0,0,0,0.1c0.3,0.6,0.1,1.3-0.5,1.6C120.7,267.1,120.6,267.1,120.4,267.1z"/>
	</g>
	<g>
		<path class="st2" d="M169.2,273c-0.1,0-0.2,0-0.3,0c-0.7-0.2-1-0.8-0.9-1.5c0,0,0,0,0,0s0.1-0.5,0-1.4c-0.2,0-0.8-0.2-1.2-0.4
			c-0.9-0.3-1.9-0.7-2.4-1.4c-0.4-0.5-0.3-1.3,0.2-1.7c0.5-0.4,1.3-0.3,1.7,0.2c0.2,0.2,0.9,0.4,1.3,0.6c1.2,0.4,2.6,1,2.8,2.4
			c0.2,1.4,0,2.2,0,2.3C170.2,272.6,169.7,273,169.2,273z"/>
	</g>
	<g>
		<path class="st2" d="M159.4,270.9c-0.6,0-1.1-0.4-1.2-1.1l1.2-0.2l-1.2,0.2c-0.6-0.5-1.2-1.2-1.1-3l0.1-1.2
			c-0.5-0.2-1-0.3-1.1-0.3c-1.1-0.1-1.9-1.2-2.1-1.5c-0.3-0.6-0.1-1.3,0.4-1.7c0.6-0.3,1.3-0.1,1.7,0.4c0.1,0.1,0.2,0.3,0.3,0.4
			c0.4,0,1.8,0.4,2.4,0.6c0.5,0.2,0.9,0.7,0.8,1.3l-0.2,2.2c-0.1,0.7,0,0.8,0.2,0.9c0.3,0.2,0.8,0.7,0.9,1.6c0.1,0.7-0.4,1.3-1,1.4
			C159.5,270.9,159.5,270.9,159.4,270.9z"/>
	</g>
	<g>
		<path class="st2" d="M147,282c-0.1,0-0.2,0-0.3,0c-0.7-0.2-1.1-0.8-0.9-1.5c0.1-0.3,0-0.6,0-0.6c0-0.2-0.1-0.4,0-0.5c0,0,0,0,0,0
			c0,0-0.1-0.8-1.3-2.9c-0.2-0.3-0.3-0.6-0.5-0.8c-0.3-0.1-0.6-0.2-0.7-0.3c-0.6-0.4-0.7-1.1-0.3-1.7c0.3-0.4,0.8-0.6,1.3-0.5
			c0.1,0,0.2-0.1,0.4,0c0.8,0,1,0.4,2,2.2c1.3,2.3,1.5,3.5,1.5,4.1c0.1,0.3,0.1,0.9,0,1.6C148.1,281.6,147.6,282,147,282z
			 M144.8,273.3l-0.7,1L144.8,273.3C144.8,273.3,144.8,273.3,144.8,273.3z"/>
	</g>
	<g>
		<path class="st2" d="M136,278.7c-0.4,0-0.8-0.2-1.1-0.6c-0.4-0.7-0.9-1.5-1.1-1.7c0,0.1-0.5-0.1-2.2-1.8h-1.4
			c-0.7,0-1.2-0.6-1.2-1.2s0.6-1.2,1.2-1.2h1.9c0.3,0,0.6,0.1,0.9,0.4c0.7,0.7,1.7,1.6,2,1.8c0.2,0.1,0.8,0.3,2.1,2.6
			c0.3,0.6,0.1,1.3-0.5,1.7C136.4,278.7,136.2,278.7,136,278.7z"/>
	</g>
</g>
</svg>
